<?xml version="1.0" encoding="UTF-8"?>
<svg width="161px" height="160px" viewBox="0 0 161 160" version="1.1" xmlns="http://www.w3.org/2000/svg" xmlns:xlink="http://www.w3.org/1999/xlink">
    <!-- Generator: Sketch Beta 39.1 (31721) - http://www.bohemiancoding.com/sketch -->
    <title>dapulse</title>
    <desc>Created with Sketch Beta.</desc>
    <defs></defs>
    <g id="Page-1" stroke="none" stroke-width="1" fill="none" fill-rule="evenodd">
        <g id="dapulse" fill="#010101">
            <g id="Group">
                <g>
                    <path d="M160.6,81.1 C160.6,36.7 124.6,0.8 80.3,0.8 C36,0.8 0,36.7 0,81.1 C0,95.6 3.8,109.2 10.5,120.9 C15.1,109.6 21.8,96.2 26.2,92.9 C26.2,92.9 36.4,83.7 46.9,87.1 C46.9,87.1 92.4,103.4 104.6,118.2 C104.6,118.2 111,127.5 108.3,136.9 C107.2,140.9 103.2,150.5 98.7,159.3 C134.2,151 160.6,119.1 160.6,81.1 L160.6,81.1 Z M112.7,100.4 C112,100.9 111.3,101.3 110.6,101.6 C108,102.5 105,101.7 103.1,99.4 C96,90.7 68.6,76.7 58.6,76.7 C54.8,76.7 51.8,73.7 51.7,69.9 C51.7,66.1 54.7,63.1 58.5,63 C73.6,62.9 104.8,79.7 113.7,90.7 C116.1,93.8 115.7,98.1 112.7,100.4 L112.7,100.4 Z M132,92.4 C113.5,69.6 67.8,49.5 44.8,49.6 C41.4,49.6 38.6,46.9 38.6,43.5 C38.6,40.1 41.3,37.3 44.7,37.3 C71,37.2 120.1,58.3 141.5,84.6 C143.6,87.2 143.2,91.1 140.6,93.2 C140,93.7 139.4,94 138.7,94.3 C136.4,95.2 133.7,94.5 132,92.4 L132,92.4 Z" id="Shape"></path>
                </g>
            </g>
        </g>
    </g>
</svg>